<?xml version="1.0" encoding="UTF-8"?>
<svg xmlns="http://www.w3.org/2000/svg" xmlns:xlink="http://www.w3.org/1999/xlink" width="32px" height="32px" viewBox="0 0 32 32" version="1.1">
<g id="surface1">
<path style=" stroke:none;fill-rule:nonzero;fill:rgb(65.098039%,48.627451%,32.156863%);fill-opacity:1;" d="M 32 17.785156 C 32 13.691406 28.667969 10.355469 24.570312 10.355469 C 23.121094 10.355469 21.699219 10.789062 20.492188 11.578125 C 20.179688 10.207031 19.765625 8.886719 19.261719 7.707031 C 17.914062 4.535156 16.144531 2.785156 14.285156 2.785156 C 12.425781 2.785156 10.65625 4.527344 9.308594 7.6875 C 8.835938 8.800781 8.4375 10.039062 8.128906 11.332031 L 6.265625 4.492188 C 6.199219 4.242188 5.972656 4.070312 5.714844 4.070312 C 5.457031 4.070312 5.230469 4.242188 5.164062 4.492188 L 0.0195312 23.351562 C -0.0273438 23.523438 0.0078125 23.707031 0.117188 23.847656 C 0.226562 23.988281 0.394531 24.070312 0.570312 24.070312 L 5.144531 24.070312 L 5.144531 28.644531 C 5.144531 28.957031 5.398438 29.214844 5.714844 29.214844 C 6.03125 29.214844 6.285156 28.957031 6.285156 28.644531 L 6.285156 24.070312 L 10.855469 24.070312 C 11.035156 24.070312 11.203125 23.988281 11.3125 23.847656 C 11.398438 23.730469 11.4375 23.589844 11.425781 23.445312 C 12.132812 23.773438 12.902344 23.980469 13.714844 24.046875 L 13.714844 28.644531 C 13.714844 28.957031 13.96875 29.214844 14.285156 29.214844 C 14.601562 29.214844 14.855469 28.957031 14.855469 28.644531 L 14.855469 24.046875 C 16.339844 23.925781 17.691406 23.328125 18.757812 22.410156 C 20.046875 24.027344 21.941406 25.035156 24 25.191406 L 24 28.644531 C 24 28.957031 24.253906 29.214844 24.570312 29.214844 C 24.886719 29.214844 25.144531 28.957031 25.144531 28.644531 L 25.144531 25.191406 C 28.972656 24.898438 32 21.691406 32 17.785156 Z M 10.109375 22.929688 L 6.285156 22.929688 L 6.285156 22.023438 L 7.296875 21.011719 C 7.519531 20.789062 7.519531 20.425781 7.296875 20.203125 C 7.074219 19.980469 6.710938 19.980469 6.488281 20.203125 L 6.285156 20.40625 L 6.285156 16.644531 C 6.285156 16.328125 6.03125 16.070312 5.714844 16.070312 C 5.398438 16.070312 5.144531 16.328125 5.144531 16.644531 L 5.144531 19.261719 L 4.402344 18.523438 C 4.179688 18.300781 3.820312 18.300781 3.597656 18.523438 C 3.371094 18.746094 3.371094 19.109375 3.597656 19.332031 L 5.144531 20.878906 L 5.144531 22.929688 L 1.320312 22.929688 L 5.714844 6.816406 L 7.648438 13.914062 C 7.5 15.023438 7.417969 16.136719 7.417969 17.207031 C 7.417969 19.378906 8.433594 21.316406 10.011719 22.574219 Z M 14.855469 22.023438 L 16.976562 19.902344 C 17.199219 19.679688 17.199219 19.320312 16.976562 19.097656 C 16.753906 18.871094 16.390625 18.871094 16.167969 19.097656 L 14.855469 20.40625 L 14.855469 18.023438 L 16.402344 16.476562 C 16.628906 16.253906 16.628906 15.890625 16.402344 15.667969 C 16.179688 15.445312 15.820312 15.445312 15.597656 15.667969 L 14.855469 16.40625 L 14.855469 14.929688 C 14.855469 14.613281 14.601562 14.355469 14.285156 14.355469 C 13.96875 14.355469 13.714844 14.613281 13.714844 14.929688 L 13.714844 19.261719 L 12.402344 17.953125 C 12.179688 17.730469 11.820312 17.730469 11.597656 17.953125 C 11.371094 18.175781 11.371094 18.539062 11.597656 18.761719 L 13.714844 20.878906 L 13.714844 22.898438 C 10.824219 22.613281 8.5625 20.167969 8.5625 17.207031 C 8.5625 14.167969 9.234375 10.777344 10.359375 8.136719 C 11.5 5.460938 12.929688 3.929688 14.285156 3.929688 C 15.636719 3.929688 17.070312 5.46875 18.210938 8.152344 C 19.335938 10.800781 20.007812 14.183594 20.007812 17.207031 C 20.007812 20.167969 17.746094 22.613281 14.855469 22.898438 Z M 25.144531 24.046875 L 25.144531 23.164062 L 27.261719 21.046875 C 27.484375 20.824219 27.484375 20.460938 27.261719 20.238281 C 27.039062 20.015625 26.675781 20.015625 26.453125 20.238281 L 25.144531 21.550781 L 25.144531 17.785156 C 25.144531 17.46875 24.886719 17.214844 24.570312 17.214844 C 24.253906 17.214844 24 17.46875 24 17.785156 L 24 20.40625 L 22.691406 19.097656 C 22.464844 18.871094 22.105469 18.871094 21.882812 19.097656 C 21.660156 19.320312 21.660156 19.679688 21.882812 19.902344 L 24 22.023438 L 24 24.046875 C 22.246094 23.886719 20.636719 22.996094 19.566406 21.589844 C 20.554688 20.398438 21.152344 18.871094 21.152344 17.207031 C 21.152344 15.78125 21.007812 14.277344 20.742188 12.800781 C 21.835938 11.960938 23.1875 11.5 24.570312 11.5 C 28.039062 11.5 30.855469 14.320312 30.855469 17.785156 C 30.855469 21.058594 28.34375 23.753906 25.144531 24.046875 Z M 25.144531 24.046875 "/>
</g>
</svg>
